<?xml version="1.0" encoding="utf-8"?>
<!-- Generator: Adobe Illustrator 22.1.0, SVG Export Plug-In . SVG Version: 6.00 Build 0)  -->
<svg version="1.1" id="레이어_1" xmlns="http://www.w3.org/2000/svg" xmlns:xlink="http://www.w3.org/1999/xlink" x="0px"
	 y="0px" viewBox="0 0 28.8 30" style="enable-background:new 0 0 28.8 30;" xml:space="preserve">
<style type="text/css">
	.st0{fill:#FFFFFF;}
</style>
<path class="st0" d="M18.4,0.1L1.8,1.3C0.5,1.4,0,2.3,0,3.3v18.2C0,22.3,0.3,23,1,24l3.9,5.1c0.6,0.8,1.2,1,2.5,0.9l19.3-1.2
	c1.6-0.1,2.1-0.9,2.1-2.2V6.2c0-0.7-0.3-0.9-1-1.4l-0.1-0.1L22.4,1C20.9,0,20.4-0.1,18.4,0.1z M7.7,5.9C6.1,6,5.8,6,4.9,5.3L2.6,3.5
	C2.4,3.3,2.5,3,3.1,2.9l16-1.2c1.3-0.1,2,0.4,2.6,0.8l2.7,2c0.1,0.1,0.4,0.4,0.1,0.4L8,5.9H7.7z M5.9,26.5V9.1
	c0-0.8,0.2-1.1,0.9-1.2l19-1.1c0.6-0.1,0.9,0.4,0.9,1.1v17.3c0,0.8-0.1,1.4-1.2,1.5L7.3,27.8C6.3,27.8,5.9,27.4,5.9,26.5z M23.8,10
	c0.1,0.5,0,1.1-0.5,1.1l-0.9,0.2v12.8c-0.8,0.4-1.5,0.6-2,0.6c-0.9,0-1.2-0.3-1.9-1.2l-5.7-9v8.7l1.8,0.4c0,0,0,1-1.5,1l-4,0.2
	c-0.1-0.2,0-0.8,0.4-0.9l1.1-0.3V12.3l-1.5-0.1c-0.1-0.5,0.2-1.3,1-1.3l4.3-0.3l6,9.1v-8l-1.5-0.2c-0.1-0.6,0.3-1.1,0.9-1.2L23.8,10
	z"/>
</svg>
